<svg xmlns="http://www.w3.org/2000/svg" version="1.1" width="241.0871" height="351.82895" viewBox="0 0 241.0871 351.82895">
	<path d="m119.9.2c-.8-.1-1.4.1-2.1.5-7.9 4.3-47.1 32.8-57.4 41.7-26.5 23.2-43.9 49-51.9 77.2-7.5 26.6-7.4 24.9-8 132.8L0 352h241.1l-.1-83.6c0-106.6-1.4-127.3-10.3-154-8.2-24.5-20.7-43.5-42.3-64.2-14.6-14-23.6-21-50.1-39.1C126.3 2.9 122.2.3 119.9.2zm.7 18.4 12.5 8.6c53.9 37.3 76.2 65.1 86 107.6 4.7 20.8 5.3 33.7 5.3 119.1V337H196v-94.6c.2-66.7-.6-82.1-5-99.5-6.4-25.5-20.8-49.1-41.5-67.9-6.9-6.3-27.3-21.6-28.7-21.6-1.1 0-13.5 8.3-20.7 13.9-10.4 8.2-27.5 26.3-33.8 35.8-17 25.8-22.5 54.3-22.6 116.6V307H15.5l.1-87.3c0-61.9 4.4-92.4 16.8-116.9 14.2-28.1 41.3-54.3 84.7-82zm-.1 53.8 9.5 7.7c19.7 16.1 33.9 34.4 40.5 52.1 8.1 21.6 8.2 22.6 8.7 93.3l.8 64.5H60.4v-74.8c0-57 4.1-78.1 20.2-103.3 6.1-9.7 21.3-25.4 32.6-34zM15.5 307H196v30l-180.5-1z" fill="#bc965d"/>
</svg>