<svg xmlns="http://www.w3.org/2000/svg" version="1.1" viewBox="0 0 32 32">
	<path d="M16.026 3C9.109 3 3.412 8.696 3.412 15.608c0 2.753.849 5.316 2.307 7.463L3 29l6.132-2.283c2.066 1.248 4.426 1.98 6.894 1.98h.006c6.913 0 12.61-5.696 12.61-12.608C28.643 8.696 22.939 3 16.026 3zm7.552 17.89c-.316.888-1.84 1.748-2.543 1.856-.67.103-1.53.146-2.474-.154-.571-.181-1.301-.42-2.257-.82-3.98-1.73-6.582-5.995-6.78-6.276-.197-.281-1.62-2.152-1.62-4.108 0-1.956 1.026-2.921 1.389-3.327.363-.405.79-.51 1.055-.51.264 0 .528.003.76.014.247.012.575-.092.9.686.316.76 1.072 2.621 1.166 2.81.094.188.158.412.029.666-.13.255-.194.412-.386.62-.188.207-.402.46-.575.617-.188.173-.384.361-.165.709.219.347.974 1.602 2.09 2.588 1.437 1.28 2.637 1.693 2.985 1.866.347.173.55.146.755-.08.205-.226.866-.98 1.096-1.317.23-.336.46-.28.77-.168.31.112 2.02.95 2.37 1.123.347.173.578.259.663.403.087.145.087.836-.229 1.725z"></path>
</svg>